<svg width="778" height="935" viewBox="0 0 778 935" fill="none" xmlns="http://www.w3.org/2000/svg">
<path d="M711.31 225.171L711.259 225.668L711.31 225.171L502.381 203.969C475.687 201.262 449.044 209.544 428.59 226.907L260.369 369.732C230.227 395.316 218.284 436.43 230.024 474.196L404.073 1034.1C408.215 1047.43 400.776 1061.58 387.451 1065.72L249.242 1108.68C235.911 1112.81 221.76 1105.37 217.624 1092.06L5.06259 408.263C-6.55217 370.899 5.27019 330.202 35.1005 304.857C35.1005 304.857 35.1006 304.857 35.1007 304.857L148.254 208.803L305.183 75.5781L365.931 24.0188C386.179 6.83104 412.551 -1.36687 438.955 1.31902L439.005 0.821583L438.955 1.31903L519.1 9.44834L712.438 29.061L860.106 44.0385C899.042 47.9855 931.853 74.8073 943.474 112.191L1119.26 677.671C1144.35 758.387 1099.27 844.169 1018.53 869.266L644.293 985.599C630.968 989.741 616.818 982.302 612.676 968.977L569.707 830.748C565.565 817.424 573.004 803.273 586.329 799.131L826.097 724.598C878.116 708.428 907.171 653.161 891.001 601.142L795.531 294.022C783.797 256.275 750.65 229.178 711.31 225.171Z" stroke="#080808"/>
</svg>
