<svg width="148" height="82" viewBox="0 0 148 82" fill="none" xmlns="http://www.w3.org/2000/svg">
<path d="M74.8 13.3304C70.7359 13.3304 57.925 23.6871 52.45 23.6871C46.975 23.6871 39.325 52.9561 32.05 52.9561C24.775 52.9561 15.25 21.886 10.375 21.886C5.5 21.886 1 36.2953 1 36.2953V82H148V14.6813C143.936 14.6813 141.015 5 137.05 5C133.085 5 121.375 48.4532 116.125 48.4532C110.875 48.4532 104.233 14.8025 98.1431 23.6871C92.0532 32.5718 78.8641 13.3304 74.8 13.3304Z" fill="url(#paint0_linear_198_696)"/>
<path d="M148 14.6988C143.936 14.6988 141.015 5 137.05 5C133.085 5 121.375 48.5317 116.125 48.5317C110.875 48.5317 104.635 14.6988 98.8792 23.7209C93.1239 32.743 78.8641 13.3455 74.8 13.3455C70.7359 13.3455 57.925 23.7209 52.45 23.7209C46.975 23.7209 39.325 53.0427 32.05 53.0427C24.775 53.0427 15.25 21.9165 10.375 21.9165C5.5 21.9165 1 36.3518 1 36.3518" stroke="#DFE154" stroke-width="2"/>
<ellipse cx="137.431" cy="5" rx="3.84314" ry="4" fill="#DFE154" stroke="white" stroke-opacity="0.63"/>
<defs>
<linearGradient id="paint0_linear_198_696" x1="74.5" y1="3.17802" x2="74.5" y2="82" gradientUnits="userSpaceOnUse">
<stop stop-color="#000000"/>
<stop offset="1" stop-color="white" stop-opacity="0"/>
</linearGradient>
</defs>
</svg>
