<svg width="39" height="41" viewBox="0 0 39 41" fill="none" xmlns="http://www.w3.org/2000/svg">
  <path d="M25.7123 16.074L27.129 16.6088C27.5544 16.7697 27.8361 17.1763 27.8361 17.6311V25.9232C27.8361 26.6442 27.1502 27.1676 26.4545 26.9774L25.0378 26.5895C24.5626 26.4597 24.2335 26.0277 24.2335 25.5353V17.0971C24.2335 16.3328 24.997 15.8053 25.7123 16.0748V16.074Z" fill="#D7D7D7"/>
  <path fill-rule="evenodd" clip-rule="evenodd" d="M39 10.9567V34.4031C39 37.7607 36.2784 40.4831 32.92 40.4831H17.4031C16.8397 40.4831 16.3832 40.0266 16.3832 39.4632V33.7319C16.3832 33.1684 16.8397 32.712 17.4031 32.712H27.3446C29.4905 32.712 31.2297 30.9727 31.2297 28.8269V16.0928C31.2297 14.5356 30.2997 13.1287 28.8666 12.5179L21.2164 9.26071C20.2439 8.84672 19.1448 8.84672 18.1723 9.26071L10.1334 12.6837C8.70033 13.2936 7.77028 14.7006 7.77028 16.2585V39.4738C7.77028 40.0373 7.31383 40.4937 6.75041 40.4937H1.01987C0.456451 40.4929 0 40.0364 0 39.4738V11.1216C0 9.56447 0.930049 8.15755 2.36309 7.54677L7.77028 5.24492L15.2695 2.05222L18.1723 0.816779C19.1448 0.402789 20.2439 0.402789 21.2156 0.816779L24.1502 2.0661L31.2297 5.07998L36.6369 7.38183C38.07 7.99179 39 9.39871 39 10.9567Z" fill="#D7D7D7"/>
</svg>
