<?xml version="1.0" encoding="UTF-8"?>
<svg id="Layer_2" data-name="Layer 2" xmlns="http://www.w3.org/2000/svg" viewBox="0 0 2129.81 489.71">
  <defs>
    <style>
      .cls-1 {
        fill-rule: evenodd;
      }

      .cls-1, .cls-2 {
        stroke-width: 0px;
      }

      .cls-1, .cls-2, .cls-3 {
        fill: #D7D7D7;
      }

      .cls-4 {
        letter-spacing: -.02em;
      }

      .cls-3 {
        font-family: NeueMontreal-Medium, 'Neue Montreal';
        font-size: 323.9px;
        font-weight: 500;
      }
    </style>
  </defs>
  <g id="Layer_1-2" data-name="Layer 1">
    <g>
      <path class="cls-2" d="M314.89,170.9l17.35,6.55c5.21,1.97,8.66,6.95,8.66,12.52v101.55c0,8.83-8.4,15.24-16.92,12.91l-17.35-4.75c-5.82-1.59-9.85-6.88-9.85-12.91v-103.34c0-9.36,9.35-15.82,18.11-12.52Z"/>
      <path class="cls-1" d="M477.62,127.99v287.14c0,41.12-33.33,74.46-74.46,74.46h-190.03c-6.9,0-12.49-5.59-12.49-12.49v-70.19c0-6.9,5.59-12.49,12.49-12.49h121.75c26.28,0,47.58-21.3,47.58-47.58v-155.95c0-19.07-11.39-36.3-28.94-43.78l-93.69-39.89c-11.91-5.07-25.37-5.07-37.28,0l-98.45,41.92c-17.55,7.47-28.94,24.7-28.94,43.78v284.31c0,6.9-5.59,12.49-12.49,12.49H12.49c-6.9,0-12.49-5.59-12.49-12.49V130.01c0-19.07,11.39-36.3,28.94-43.78l66.22-28.19,91.84-39.1,35.55-15.13c11.91-5.07,25.37-5.07,37.27,0l35.94,15.3,86.7,36.91,66.22,28.19c17.55,7.47,28.94,24.7,28.94,43.78Z"/>
    </g>
    <text class="cls-3" transform="translate(596.83 389.13)"><tspan x="0" y="0">P</tspan><tspan class="cls-4" x="200.49" y="0">r</tspan><tspan x="310.29" y="0">opspace</tspan></text>
  </g>
</svg>
