<svg width="149" height="70" viewBox="0 0 149 70" fill="none" xmlns="http://www.w3.org/2000/svg">
<path d="M74.8 1C70.7359 1 57.925 11.3567 52.45 11.3567C46.975 11.3567 39.325 40.6257 32.05 40.6257C24.775 40.6257 15.25 9.55556 10.375 9.55556C5.5 9.55556 1 23.9649 1 23.9649V69.6696H148V2.35088C143.936 2.35088 140.465 49.1696 136.5 49.1696C132.535 49.1696 121.375 36.1228 116.125 36.1228C110.875 36.1228 104.233 2.47211 98.1431 11.3567C92.0532 20.2413 78.8641 1 74.8 1Z" fill="url(#paint0_linear_198_700)"/>
<path d="M148 2.36845C143.936 2.36845 140.465 49.1697 136.5 49.1697C132.535 49.1697 121.375 36.2014 116.125 36.2014C110.875 36.2014 104.635 2.36845 98.8792 11.3906C93.1239 20.4127 78.8641 1.01514 74.8 1.01514C70.7359 1.01514 57.925 11.3906 52.45 11.3906C46.975 11.3906 39.325 40.7124 32.05 40.7124C24.775 40.7124 15.25 9.58614 10.375 9.58614C5.5 9.58614 1 24.0215 1 24.0215" stroke="#EC1C24" stroke-width="2"/>
<ellipse cx="136.843" cy="48.6697" rx="3.84314" ry="4" fill="#EC1C24" stroke="white" stroke-opacity="0.63"/>
<defs>
<linearGradient id="paint0_linear_198_700" x1="74.5" y1="-9.1524" x2="74.5" y2="69.6696" gradientUnits="userSpaceOnUse">
<stop stop-color="#000000"/>
<stop offset="1" stop-color="white" stop-opacity="0"/>
</linearGradient>
</defs>
</svg>
