<?xml version="1.0" encoding="utf-8"?>
<!-- Generator: Adobe Illustrator 28.1.0, SVG Export Plug-In . SVG Version: 6.00 Build 0)  -->
<svg version="1.1" id="Layer_2_00000019677293920200443360000001659535272851626913_"
	 xmlns="http://www.w3.org/2000/svg" xmlns:xlink="http://www.w3.org/1999/xlink" x="0px" y="0px" viewBox="0 0 477.6 489.7"
	 style="enable-background:new 0 0 477.6 489.7;" xml:space="preserve">
<style type="text/css">
	.st0{fill:#DFE154;}
	.st1{fill-rule:evenodd;clip-rule:evenodd;}
</style>
<path class="st0" d="M440.4,489.7H37.2C16.6,489.7,0,473.1,0,452.5V37.2C0,16.7,16.6,0,37.2,0h403.2c20.5,0,37.2,16.6,37.2,37.2
	v415.3C477.6,473.1,461,489.7,440.4,489.7z"/>
<g id="Layer_1-2">
	<g>
		<path d="M279.5,215.9l9.3,3.5c2.8,1.1,4.6,3.7,4.6,6.7v54.3c0,4.7-4.5,8.1-9,6.9l-9.3-2.5c-3.1-0.8-5.3-3.7-5.3-6.9v-55.2
			C269.8,217.6,274.8,214.1,279.5,215.9L279.5,215.9z"/>
		<path class="st1" d="M366.5,182.4v153.5c0,22-17.8,39.8-39.8,39.8H225.1c-3.7,0-6.7-3-6.7-6.7v-37.5c0-3.7,3-6.7,6.7-6.7h65.1
			c14,0,25.4-11.4,25.4-25.4V216c0-10.2-6.1-19.4-15.5-23.4L250,171.3c-6.4-2.7-13.6-2.7-19.9,0l-52.6,22.4
			c-9.4,4-15.5,13.2-15.5,23.4v152c0,3.7-3,6.7-6.7,6.7h-37.5c-3.7,0-6.7-3-6.7-6.7V183.5c0-10.2,6.1-19.4,15.5-23.4L162,145
			l49.1-20.9l19-8.1c6.4-2.7,13.6-2.7,19.9,0l19.2,8.2l46.3,19.7L351,159C360.4,163,366.5,172.2,366.5,182.4L366.5,182.4z"/>
	</g>
</g>
</svg>
